<?xml version="1.0" encoding="utf-8"?>
<!-- Generator: Adobe Illustrator 21.1.0, SVG Export Plug-In . SVG Version: 6.00 Build 0)  -->
<svg version="1.1" id="Layer_1" xmlns="http://www.w3.org/2000/svg" xmlns:xlink="http://www.w3.org/1999/xlink" x="0px" y="0px"
	 viewBox="0 0 254.7 96.7" style="enable-background:new 0 0 254.7 96.7;" xml:space="preserve">
<style type="text/css">
	.st0{fill:#A1875A;}
	.st1{fill:#A1875A;stroke:#A1875A;stroke-width:0.75;stroke-miterlimit:10;}
	.st2{fill:#A1875A;stroke:#A1875A;stroke-width:0.25;stroke-miterlimit:10;}
</style>
<g>
	<path class="st0" d="M130.3,7.5c0,0-13.1-7.9-22.9-0.6c0,0,7.3-0.4,15.2,5.1L130.3,7.5z"/>
	<path class="st0" d="M160.2,18.6c0,0-0.4-1.1-1-1.5c0,0-5.3,5.6-15.9,0.2l-7.5,4.7c0,0,8.6,4.3,16.1,2.4
		C158.7,22.7,160.2,18.6,160.2,18.6z"/>
	<path class="st0" d="M160.2,41.1c0,0-0.4-1.1-1-1.5c0,0-5.3,5.6-15.9,0.2l-7.5,4.7c0,0,8.6,4.3,16.1,2.4
		C158.7,45.2,160.2,41.1,160.2,41.1z"/>
	<path class="st0" d="M82.6,24.7c0,0-2.5,10.4,10.8,13C105.2,40,124,26.9,131.9,22c7.8-4.9,22.8-15.7,29.5-4.4c0,0,0.8-3.7-1.3-7.3
		c-1.9-3.3-6.6-6.5-15.2-5.7c-5.6,0.5-14.2,3.4-31.4,14.6S88.6,33.4,82.6,24.7z"/>
	<path class="st0" d="M113.7,57.3c0,0,13.1,7.9,22.9,0.6c0,0-7.3,0.4-15.2-5.1L113.7,57.3z"/>
	<path class="st0" d="M83.7,46.2c0,0,0.4,1.1,1,1.5c0,0,5.3-5.6,15.9-0.2l7.5-4.7c0,0-8.6-4.3-16.1-2.4
		C85.3,42.1,83.7,46.2,83.7,46.2z"/>
	<path class="st0" d="M83.7,23.7c0,0,0.4,1.1,1,1.5c0,0,5.3-5.6,15.9-0.2l7.5-4.7c0,0-8.6-4.3-16.1-2.4
		C85.3,19.5,83.7,23.7,83.7,23.7z"/>
	<path class="st0" d="M161.3,40.1c0,0,2.5-10.4-10.8-13c-11.7-2.3-30.6,10.7-38.4,15.6s-22.8,15.7-29.5,4.4c0,0-0.8,3.7,1.3,7.3
		c1.9,3.3,6.6,6.5,15.2,5.7c5.6-0.5,14.2-3.4,31.4-14.6S155.3,31.4,161.3,40.1z"/>
	<path class="st0" d="M115.3,33.7c0,0,4.6-2.6,8.8-5.2l4.6,2.4c-0.5,0.4-5.3,3-9,5.2L115.3,33.7z"/>
	<g>
		<g>
			<g>
				<path class="st1" d="M1.6,90.8l0.6-0.7c1.3,1.2,2.5,1.8,4.3,1.8c1.8,0,3-1,3-2.4v0c0-1.3-0.7-2-3.4-2.5c-2.9-0.6-4-1.5-4-3.4v0
					c0-1.8,1.6-3.1,3.8-3.1c1.7,0,2.9,0.5,4.1,1.4l-0.6,0.7c-1.1-1-2.2-1.3-3.6-1.3c-1.8,0-2.9,1-2.9,2.2v0c0,1.3,0.6,2,3.5,2.6
					c2.8,0.6,3.9,1.5,3.9,3.3v0c0,1.9-1.6,3.2-3.9,3.2C4.5,92.7,3,92.1,1.6,90.8z"/>
				<path class="st1" d="M13.2,80.6h0.9v11.9h-0.9V80.6z"/>
				<path class="st1" d="M17.6,80.6h0.8l4.8,7l4.8-7h0.8v11.9h-0.9V82.2l-4.7,6.9h-0.1l-4.7-6.9v10.3h-0.9V80.6z"/>
				<path class="st1" d="M32.2,80.6h4.3c2.6,0,4.4,1.3,4.4,3.6v0c0,2.5-2.2,3.8-4.6,3.8h-3.2v4.4h-0.9V80.6z M36.3,87.3
					c2.2,0,3.7-1.2,3.7-2.9v0c0-1.9-1.5-2.9-3.6-2.9h-3.4v5.8H36.3z"/>
				<path class="st1" d="M42.6,90.8l0.6-0.7c1.3,1.2,2.5,1.8,4.3,1.8c1.8,0,3-1,3-2.4v0c0-1.3-0.7-2-3.4-2.5c-2.9-0.6-4-1.5-4-3.4v0
					c0-1.8,1.6-3.1,3.8-3.1c1.7,0,2.9,0.5,4.1,1.4l-0.6,0.7c-1.1-1-2.2-1.3-3.6-1.3c-1.8,0-2.9,1-2.9,2.2v0c0,1.3,0.6,2,3.5,2.6
					c2.8,0.6,3.9,1.5,3.9,3.3v0c0,1.9-1.6,3.2-3.9,3.2C45.5,92.7,44,92.1,42.6,90.8z"/>
				<path class="st1" d="M53.6,86.6L53.6,86.6c0-3.3,2.4-6.2,6-6.2c3.6,0,6,2.9,6,6.1c0,0,0,0,0,0c0,3.2-2.4,6.2-6,6.2
					C55.9,92.7,53.6,89.9,53.6,86.6z M64.6,86.6L64.6,86.6c0-3-2.1-5.4-5.1-5.4c-2.9,0-5.1,2.4-5.1,5.3v0c0,2.9,2.1,5.4,5.1,5.4
					C62.5,91.9,64.6,89.6,64.6,86.6z"/>
				<path class="st1" d="M68.4,80.6h0.8L77.4,91V80.6h0.9v11.9h-0.7L69.2,82v10.6h-0.9V80.6z"/>
				<path class="st1" d="M95.7,90.8l0.6-0.7c1.3,1.2,2.5,1.8,4.3,1.8c1.8,0,3-1,3-2.4v0c0-1.3-0.7-2-3.4-2.5c-2.9-0.6-4-1.5-4-3.4v0
					c0-1.8,1.6-3.1,3.8-3.1c1.7,0,2.9,0.5,4.1,1.4l-0.6,0.7c-1.1-1-2.2-1.3-3.6-1.3c-1.8,0-2.9,1-2.9,2.2v0c0,1.3,0.6,2,3.5,2.6
					c2.8,0.6,3.9,1.5,3.9,3.3v0c0,1.9-1.6,3.2-3.9,3.2C98.6,92.7,97.1,92.1,95.7,90.8z"/>
				<path class="st1" d="M107.2,80.6h4.3c2.6,0,4.4,1.3,4.4,3.6v0c0,2.5-2.2,3.8-4.6,3.8h-3.2v4.4h-0.9V80.6z M111.3,87.3
					c2.2,0,3.7-1.2,3.7-2.9v0c0-1.9-1.5-2.9-3.6-2.9h-3.4v5.8H111.3z"/>
				<path class="st1" d="M118.4,80.6h8.5v0.8h-7.6v4.7h6.8v0.8h-6.8v4.8h7.7v0.8h-8.6V80.6z"/>
				<path class="st1" d="M129.6,80.6h0.8l8.2,10.4V80.6h0.9v11.9h-0.7L130.4,82v10.6h-0.9V80.6z"/>
				<path class="st1" d="M142.3,86.6L142.3,86.6c0-3.4,2.5-6.2,6-6.2c2.1,0,3.4,0.8,4.6,1.9l-0.6,0.6c-1-1-2.2-1.8-4-1.8
					c-2.9,0-5,2.3-5,5.3v0c0,3,2.2,5.4,5,5.4c1.7,0,2.9-0.7,4.1-1.9l0.6,0.6c-1.3,1.2-2.6,2.1-4.7,2.1
					C144.9,92.7,142.3,90,142.3,86.6z"/>
				<path class="st1" d="M155.2,80.6h8.5v0.8h-7.6v4.7h6.8v0.8h-6.8v4.8h7.7v0.8h-8.6V80.6z"/>
				<path class="st1" d="M185.2,87.8l-5.1-7.2h1.1l4.5,6.4l4.5-6.4h1.1l-5.1,7.2v4.7h-0.9V87.8z"/>
				<path class="st1" d="M191.7,86.6L191.7,86.6c0-3.3,2.4-6.2,6-6.2c3.6,0,6,2.9,6,6.1c0,0,0,0,0,0c0,3.2-2.4,6.2-6,6.2
					S191.7,89.9,191.7,86.6z M202.8,86.6L202.8,86.6c0-3-2.1-5.4-5.1-5.4c-2.9,0-5.1,2.4-5.1,5.3v0c0,2.9,2.1,5.4,5.1,5.4
					C200.7,91.9,202.8,89.6,202.8,86.6z"/>
				<path class="st1" d="M206.4,87.6v-7h0.9v6.9c0,2.8,1.5,4.4,4,4.4c2.4,0,4-1.5,4-4.3v-7h0.9v6.9c0,3.4-2,5.2-4.9,5.2
					C208.4,92.7,206.4,90.9,206.4,87.6z"/>
				<path class="st1" d="M219.3,80.6h0.8l8.2,10.4V80.6h0.9v11.9h-0.7L220.2,82v10.6h-0.9V80.6z"/>
				<path class="st1" d="M232.1,86.6L232.1,86.6c0-3.2,2.3-6.2,5.9-6.2c1.9,0,3.2,0.6,4.4,1.6l-0.6,0.7c-0.9-0.8-2-1.4-3.8-1.4
					c-2.9,0-4.9,2.4-4.9,5.3v0c0,3.1,1.9,5.4,5.1,5.4c1.5,0,2.9-0.6,3.8-1.4v-3.4h-4v-0.8h4.8V91c-1.1,1-2.7,1.8-4.7,1.8
					C234.3,92.7,232.1,90,232.1,86.6z"/>
			</g>
			<g>
				<rect x="87.5" y="80.9" class="st1" width="0.7" height="12"/>
			</g>
			<g>
				<rect x="171.6" y="80.9" class="st1" width="0.7" height="12"/>
			</g>
		</g>
	</g>
	<g>
		<path class="st2" d="M246.5,83.9L246.5,83.9c0-1.8,1.5-3.3,3.3-3.3c1.8,0,3.3,1.5,3.3,3.3v0c0,1.8-1.5,3.3-3.3,3.3
			S246.5,85.7,246.5,83.9z M252.7,83.9L252.7,83.9c0-1.6-1.3-3-2.9-3c-1.7,0-3,1.3-3,3v0c0,1.6,1.3,2.9,2.9,2.9
			C251.5,86.9,252.7,85.5,252.7,83.9z M248.5,82.1h1.5c0.5,0,0.8,0.1,1,0.4c0.2,0.2,0.3,0.4,0.3,0.7v0c0,0.6-0.3,0.9-0.8,1l0.9,1.3
			h-0.8l-0.8-1.2h0h-0.7v1.2h-0.7V82.1z M250,83.8c0.4,0,0.7-0.2,0.7-0.5v0c0-0.3-0.3-0.5-0.7-0.5h-0.9v1.1H250z"/>
	</g>
</g>
</svg>
