<?xml version="1.0" encoding="utf-8"?>
<!-- Generator: Adobe Illustrator 21.1.0, SVG Export Plug-In . SVG Version: 6.00 Build 0)  -->
<svg version="1.1" id="Layer_1" xmlns="http://www.w3.org/2000/svg" xmlns:xlink="http://www.w3.org/1999/xlink" x="0px" y="0px"
	 viewBox="0 0 297.4 27.3" style="enable-background:new 0 0 297.4 27.3;" xml:space="preserve">
<style type="text/css">
	.st0{fill:#A1875A;stroke:#A1875A;stroke-width:0.5;stroke-miterlimit:10;}
	.st1{fill:#A1875A;}
	.st2{fill:#A1875A;stroke:#A1875A;stroke-width:0.25;stroke-miterlimit:10;}
</style>
<g>
	<g>
		<g>
			<path class="st0" d="M41.2,17.7l0.6-0.7c1.3,1.2,2.5,1.8,4.3,1.8c1.8,0,3-1,3-2.4v0c0-1.3-0.7-2-3.4-2.5c-2.9-0.6-4-1.5-4-3.3v0
				c0-1.8,1.6-3.1,3.8-3.1c1.7,0,2.9,0.5,4.1,1.4l-0.6,0.7c-1.1-1-2.2-1.3-3.6-1.3c-1.8,0-2.9,1-2.9,2.2v0c0,1.3,0.6,2,3.5,2.6
				c2.8,0.6,3.9,1.5,3.9,3.3v0c0,1.9-1.6,3.2-3.9,3.2C44.1,19.6,42.7,18.9,41.2,17.7z"/>
			<path class="st0" d="M52.8,7.5h0.9v11.9h-0.9V7.5z"/>
			<path class="st0" d="M57.2,7.5H58l4.8,7l4.8-7h0.8v11.9h-0.9V9.1l-4.7,6.8h-0.1l-4.7-6.8v10.3h-0.8V7.5z"/>
			<path class="st0" d="M71.8,7.5h4.3c2.6,0,4.4,1.3,4.4,3.6v0c0,2.5-2.2,3.8-4.6,3.8h-3.2v4.4h-0.9V7.5z M75.9,14.1
				c2.2,0,3.7-1.2,3.7-2.9v0c0-1.9-1.5-2.9-3.6-2.9h-3.4v5.8H75.9z"/>
			<path class="st0" d="M82.2,17.7l0.6-0.7c1.3,1.2,2.5,1.8,4.3,1.8c1.8,0,3-1,3-2.4v0c0-1.3-0.7-2-3.4-2.5c-2.9-0.6-4-1.5-4-3.3v0
				c0-1.8,1.6-3.1,3.8-3.1c1.7,0,2.9,0.5,4.1,1.4L90,9.5c-1.1-1-2.2-1.3-3.6-1.3c-1.8,0-2.9,1-2.9,2.2v0c0,1.3,0.6,2,3.5,2.6
				c2.8,0.6,3.9,1.5,3.9,3.3v0c0,1.9-1.6,3.2-3.9,3.2C85.1,19.6,83.6,18.9,82.2,17.7z"/>
			<path class="st0" d="M93.1,13.5L93.1,13.5c0-3.3,2.4-6.2,6-6.2c3.6,0,6,2.9,6,6.1c0,0,0,0,0,0c0,3.2-2.4,6.2-6,6.2
				C95.5,19.6,93.1,16.7,93.1,13.5z M104.2,13.5L104.2,13.5c0-3-2.1-5.4-5.1-5.4c-2.9,0-5,2.4-5,5.3v0c0,2.9,2.1,5.4,5.1,5.4
				C102.1,18.8,104.2,16.4,104.2,13.5z"/>
			<path class="st0" d="M107.9,7.5h0.8l8.2,10.3V7.5h0.8v11.9h-0.7l-8.4-10.6v10.6h-0.8V7.5z"/>
			<path class="st0" d="M137.2,17.7l0.6-0.7c1.3,1.2,2.5,1.8,4.3,1.8c1.8,0,3-1,3-2.4v0c0-1.3-0.7-2-3.4-2.5c-2.9-0.6-4-1.5-4-3.3v0
				c0-1.8,1.6-3.1,3.8-3.1c1.7,0,2.9,0.5,4.1,1.4L145,9.5c-1.1-1-2.2-1.3-3.6-1.3c-1.8,0-2.9,1-2.9,2.2v0c0,1.3,0.6,2,3.5,2.6
				c2.8,0.6,3.9,1.5,3.9,3.3v0c0,1.9-1.6,3.2-3.9,3.2C140.1,19.6,138.7,18.9,137.2,17.7z"/>
			<path class="st0" d="M148.7,7.5h4.3c2.6,0,4.4,1.3,4.4,3.6v0c0,2.5-2.2,3.8-4.6,3.8h-3.2v4.4h-0.9V7.5z M152.8,14.1
				c2.2,0,3.7-1.2,3.7-2.9v0c0-1.9-1.5-2.9-3.6-2.9h-3.4v5.8H152.8z"/>
			<path class="st0" d="M159.9,7.5h8.5v0.8h-7.6V13h6.8v0.8h-6.8v4.8h7.7v0.8h-8.5V7.5z"/>
			<path class="st0" d="M171.1,7.5h0.8l8.2,10.3V7.5h0.8v11.9h-0.7l-8.4-10.6v10.6h-0.8V7.5z"/>
			<path class="st0" d="M183.8,13.5L183.8,13.5c0-3.4,2.5-6.2,5.9-6.2c2.1,0,3.4,0.8,4.6,1.9l-0.6,0.6c-1-1-2.2-1.8-4-1.8
				c-2.9,0-5,2.3-5,5.3v0c0,3,2.2,5.4,5,5.4c1.7,0,2.9-0.7,4.1-1.9l0.6,0.6c-1.3,1.2-2.6,2.1-4.7,2.1
				C186.3,19.6,183.8,16.9,183.8,13.5z"/>
			<path class="st0" d="M196.7,7.5h8.5v0.8h-7.6V13h6.8v0.8h-6.8v4.8h7.7v0.8h-8.5V7.5z"/>
			<path class="st0" d="M228.6,14.7l-5.1-7.2h1.1l4.5,6.4l4.5-6.4h1.1l-5.1,7.2v4.7h-0.9V14.7z"/>
			<path class="st0" d="M235.2,13.5L235.2,13.5c0-3.3,2.4-6.2,6-6.2c3.6,0,6,2.9,6,6.1c0,0,0,0,0,0c0,3.2-2.4,6.2-6,6.2
				C237.5,19.6,235.2,16.7,235.2,13.5z M246.2,13.5L246.2,13.5c0-3-2.1-5.4-5.1-5.4c-2.9,0-5,2.4-5,5.3v0c0,2.9,2.1,5.4,5.1,5.4
				C244.1,18.8,246.2,16.4,246.2,13.5z"/>
			<path class="st0" d="M249.8,14.4v-7h0.9v6.9c0,2.8,1.5,4.4,4,4.4c2.4,0,4-1.5,4-4.3v-7h0.9v6.8c0,3.4-2,5.2-4.9,5.2
				C251.8,19.6,249.8,17.8,249.8,14.4z"/>
			<path class="st0" d="M262.7,7.5h0.8l8.2,10.3V7.5h0.8v11.9H272l-8.4-10.6v10.6h-0.8V7.5z"/>
			<path class="st0" d="M275.5,13.5L275.5,13.5c0-3.2,2.3-6.2,5.9-6.2c1.9,0,3.2,0.6,4.4,1.6l-0.6,0.7c-0.9-0.8-2-1.4-3.8-1.4
				c-2.9,0-4.9,2.4-4.9,5.3v0c0,3.1,1.9,5.4,5.1,5.4c1.5,0,2.9-0.6,3.8-1.4V14h-4v-0.8h4.8v4.6c-1.1,1-2.7,1.8-4.7,1.8
				C277.7,19.6,275.5,16.8,275.5,13.5z"/>
		</g>
		<g>
			<rect x="128.1" y="7.8" class="st0" width="0.7" height="12"/>
		</g>
		<g>
			<rect x="214" y="7.8" class="st0" width="0.7" height="12"/>
		</g>
	</g>
	<g>
		<path class="st1" d="M20.3,3.6c0,0-5.3-3.2-9.2-0.3c0,0,3-0.2,6.1,2L20.3,3.6z"/>
		<path class="st1" d="M32.3,8.1c0,0-0.2-0.4-0.4-0.6c0,0-2.1,2.2-6.4,0.1l-3,1.9c0,0,3.5,1.7,6.5,1C31.7,9.7,32.3,8.1,32.3,8.1z"/>
		<path class="st1" d="M32.3,17.2c0,0-0.2-0.4-0.4-0.6c0,0-2.1,2.2-6.4,0.1l-3,1.9c0,0,3.5,1.7,6.5,1C31.7,18.8,32.3,17.2,32.3,17.2
			z"/>
		<path class="st1" d="M1,10.5c0,0-1,4.2,4.4,5.3c4.7,0.9,12.3-4.3,15.5-6.3s9.2-6.3,11.9-1.8c0,0,0.3-1.5-0.5-2.9
			c-0.8-1.3-2.7-2.6-6.1-2.3c-2.3,0.2-5.7,1.4-12.6,5.9S3.4,14,1,10.5z"/>
		<path class="st1" d="M13.6,23.7c0,0,5.3,3.2,9.2,0.3c0,0-3,0.2-6.1-2L13.6,23.7z"/>
		<path class="st1" d="M1.5,19.2c0,0,0.2,0.4,0.4,0.6c0,0,2.1-2.2,6.4-0.1l3-1.9c0,0-3.5-1.7-6.5-1C2.1,17.6,1.5,19.2,1.5,19.2z"/>
		<path class="st1" d="M1.5,10.1c0,0,0.2,0.4,0.4,0.6c0,0,2.1-2.2,6.4-0.1l3-1.9c0,0-3.5-1.7-6.5-1C2.1,8.5,1.5,10.1,1.5,10.1z"/>
		<path class="st1" d="M32.8,16.8c0,0,1-4.2-4.4-5.3c-4.7-0.9-12.3,4.3-15.5,6.3S3.7,24.2,1,19.6c0,0-0.3,1.5,0.5,2.9
			c0.8,1.3,2.7,2.6,6.1,2.3c2.3-0.2,5.7-1.4,12.6-5.9S30.4,13.2,32.8,16.8z"/>
		<path class="st1" d="M14.2,14.2c0,0,1.9-1,3.5-2.1l1.8,1c-0.2,0.2-2.1,1.2-3.6,2.1L14.2,14.2z"/>
	</g>
	<g>
		<path class="st2" d="M289.9,10.8L289.9,10.8c0-1.8,1.5-3.3,3.3-3.3c1.8,0,3.3,1.5,3.3,3.3v0c0,1.8-1.5,3.3-3.3,3.3
			C291.3,14,289.9,12.6,289.9,10.8z M296.1,10.7L296.1,10.7c0-1.6-1.3-3-2.9-3c-1.7,0-3,1.3-3,3v0c0,1.6,1.3,2.9,2.9,2.9
			C294.8,13.7,296.1,12.4,296.1,10.7z M291.8,8.9h1.5c0.5,0,0.8,0.1,1,0.4c0.2,0.2,0.3,0.4,0.3,0.7v0c0,0.6-0.3,0.9-0.8,1l0.9,1.3
			h-0.8l-0.8-1.2h0h-0.7v1.2h-0.7V8.9z M293.4,10.6c0.4,0,0.7-0.2,0.7-0.5v0c0-0.3-0.3-0.5-0.7-0.5h-0.9v1.1H293.4z"/>
	</g>
</g>
</svg>
